PathFileType	4	(X/Y/Z)	S01_Demo_SingleTrial_0-100.trc
DataRate	CameraRate	NumFrames	NumMarkers	Units	OrigDataRate	OrigDataStartFrame	OrigNumFrames
60	60	7	21	m	60	0	100
Frame#	Time	RHip			RKnee			RAnkle			RBigToe			RSmallToe			RHeel			LHip			LKnee			LAnkle			LBigToe			LSmallToe			LHeel			Neck			Head			Nose			RShoulder			RElbow			RWrist			LShoulder			LElbow			LWrist		
		X1	Y1	Z1	X2	Y2	Z2	X3	Y3	Z3	X4	Y4	Z4	X5	Y5	Z5	X6	Y6	Z6	X7	Y7	Z7	X8	Y8	Z8	X9	Y9	Z9	X10	Y10	Z10	X11	Y11	Z11	X12	Y12	Z12	X13	Y13	Z13	X14	Y14	Z14	X15	Y15	Z15	X16	Y16	Z16	X17	Y17	Z17	X18	Y18	Z18	X19	Y19	Z19	X20	Y20	Z20	X21	Y21	Z21
1	0.0166666666666666	-0.06498953316479913	0.9015229612868192	-1.4005720233313133	-0.03970635816625673	0.493097374018439	-1.448361474613912	0.04373403406107431	0.14391914115172216	-1.5950363637420328	-0.016911731449021358	0.0644231905506928	-1.4466026954309108	-0.02362611852121929	0.07648798178590101	-1.5049866317994465	0.05999448328280664	0.10448691237214193	-1.6358635892584448	0.10413022115407579	0.9087637351995463	-1.4589420674667042	0.030344546969371285	0.5361935066567151	-1.2634393837697946	0.013815174843549211	0.18116567138776754	-1.1375297154656954	-0.022253388862479885	0.0953882460228365	-1.0123911123057348	0.0026306140986989226	0.11356518191204815	-0.9899168737126968	0.023237253675548578	0.10280734137011628	-1.2269563540873663	-0.028682335530785478	1.4640552184809015	-1.3966526885602444	-0.056365859992283496	1.7024137481024944	-1.2517416764510645	-0.053037711356214254	1.5572408593332574	-1.1970460753409873	-0.16746190868799757	1.3929257250392657	-1.4131370906736296	-0.2729308783624765	1.145646798104275	-1.4795773452938819	-0.3630337405027919	0.9229005026398899	-1.369556368069013	0.144917082612593	1.4142181578627342	-1.445356674770551	0.2770412281787682	1.1648300459924061	-1.4725556706318368	0.3546485988115265	0.9377122649124715	-1.4580401669318872
2	0.0333333333333333	-0.07290514134798232	0.9071098492046902	-1.3841621771093973	-0.041057617405858574	0.5018276150446788	-1.4272004814322565	0.03941549398868255	0.1511035451629496	-1.5816536936810126	-0.015778316259333954	0.06484170314453415	-1.4482894617625097	-0.0231185327147358	0.07458903357885915	-1.505228322093806	0.06031707338656752	0.108311225508178	-1.6240796688592891	0.10242191265338788	0.9109477233959287	-1.4222162565354541	0.02932391518888672	0.5456470681092606	-1.2319803985813784	0.011901582757044445	0.17605434093572944	-1.1436981623338685	-0.021747445891040548	0.09931471993445515	-1.0010032833177194	0.0026245958152204727	0.10715039642182926	-0.9985348359253399	0.021804962666448477	0.10434176893015458	-1.2168951042866787	-0.022888387313731513	1.4632465214955515	-1.3820128196140709	-0.04520776724908524	1.7046907016057038	-1.2438620438057377	-0.03847443176113142	1.5563502491214958	-1.198556437149986	-0.16216343884861287	1.3966824074127049	-1.4043410315173566	-0.27459740945455213	1.1494359684379178	-1.480426788851056	-0.36679618299940075	0.9403991412024602	-1.367277018958846	0.14872913397705376	1.411763014124195	-1.427833552598181	0.27479253409949617	1.166439116306325	-1.4507806195040778	0.3570017580957674	0.9393021538424406	-1.425461302992084
3	0.05	-0.07752220304585125	0.9106169943040913	-1.3736712871545542	-0.04178181630658256	0.5067647242166435	-1.4152232975363521	0.03677201402878244	0.15538991124574955	-1.574909046241853	-0.01518972584241201	0.06507714421503753	-1.4493617708926934	-0.022713442585450966	0.07362228951692465	-1.5051870852945595	0.060326887792010016	0.11149580511192354	-1.6184077134824435	0.10033366462057187	0.9119441906672515	-1.3996987367888232	0.028171431726825465	0.5499306020186217	-1.2119042445243053	0.009998505663451705	0.1703391238407207	-1.151712459470823	-0.021416356610534117	0.09943179667688355	-0.9944935429882586	0.0007145039098215037	0.09940448116803018	-1.0084909311851091	0.019854945399569626	0.10557173021419068	-1.2088392018149645	-0.017434450165213486	1.4627781377414448	-1.3699866452964133	-0.033654675740592534	1.7063412919875298	-1.2362488055533583	-0.025755355347066293	1.555729682024876	-1.1985086121631983	-0.156825081114955	1.400030984222484	-1.3965454830288841	-0.27759529198766864	1.1519657654627822	-1.4841724759697792	-0.3723286661792402	0.9561215634508442	-1.366343649170514	0.1520870679759658	1.4095902602420254	-1.417017115894883	0.27349734274659937	1.1657253487117012	-1.4366053836460402	0.3590885767708296	0.9382840066971556	-1.4037434651375174
4	0.0666666666666666	-0.07784386533482514	0.9114264612949814	-1.370039509647655	-0.041878732976429446	0.5070460635601964	-1.4143463330956088	0.03589393263289016	0.15618911812442274	-1.5760388229581948	-0.015367067781107784	0.06513036435785621	-1.44946917682908	-0.022559838980385428	0.07384372494972902	-1.5048403778021773	0.05981693415238055	0.11408119743579764	-1.6202369562735863	0.0976566859890994	0.9114961381358669	-1.3941229937809425	0.027637568054775505	0.5476110045716323	-1.2050412678456461	0.007958241659033968	0.16434853304813776	-1.161212955649898	-0.021977135408685084	0.09508238959660008	-0.9942579024755305	-0.0033493111536471217	0.09064561746607067	-1.0193226489475415	0.017166479204905858	0.10668653563838457	-1.2029344179794634	-0.011908777048501486	1.4627900946164494	-1.3604040753396283	-0.02127101153882517	1.7074444082867146	-1.2270794801845912	-0.01578305146680218	1.5556654443577436	-1.1950548290626315	-0.1513825661199466	1.4030339051696106	-1.3894223445273743	-0.2823713907518439	1.1534827895833912	-1.4909025743144209	-0.38053151705406846	0.9699247585387901	-1.3668175773179572	0.1547657700532556	1.4079709941427847	-1.414707590232806	0.2738563838525468	1.1619237823821953	-1.4306914177097936	0.36076534853724884	0.9340843533671801	-1.3948675692825572
5	0.0833333333333333	-0.0755643131077076	0.910518044257452	-1.369583087296288	-0.04177181502187567	0.504581372987546	-1.419702180259231	0.03569482883396175	0.15500350774564872	-1.581598912523518	-0.01622369397222468	0.0652473675805835	-1.4485170710797453	-0.022832405703395914	0.07486952067634899	-1.5042249212486014	0.05871214786317717	0.11680612674735599	-1.6267007189535956	0.09436095160095603	0.9102646606275054	-1.3980040770461735	0.029145800258990936	0.540730075432825	-1.2042789449580031	0.0056496877129480014	0.1590906408088749	-1.169943914756936	-0.024049754231113486	0.08834558492687383	-0.9981225523640288	-0.008239061826844226	0.08251423978403395	-1.0290777273402991	0.013984203712851953	0.10813151052605015	-1.1979711502616395	-0.005450653368194958	1.4631762862089788	-1.350716382954018	-0.007813617524483037	1.7085388859827497	-1.2139876689170441	-0.008006670846950427	1.556264087152476	-1.186963764082489	-0.14576202007756012	1.4061386348670422	-1.3815573041546085	-0.28805822791186436	1.155690799093883	-1.4971702525107562	-0.39077619602035235	0.9828928941122265	-1.3666432481224986	0.15680606693995303	1.4070675079738941	-1.4178100303455825	0.27601214814481706	1.1558372800532324	-1.4280550484394459	0.36216941882986275	0.9277256914715103	-1.3923862840673942
6	0.1	-0.0736987289330513	0.9094087573614853	-1.3679706060022874	-0.04179469088870828	0.5016810939637333	-1.4254622668120795	0.03529897695653685	0.15369233972430352	-1.5876766750014817	-0.017558313004623332	0.06578067442011343	-1.4466045569920873	-0.02360688095080308	0.07620710623492821	-1.503215302964023	0.057106771404815	0.12044385501510738	-1.6343700668121683	0.090433321499588	0.9090408889481439	-1.4027196151362202	0.033504734705575336	0.531903600645088	-1.201548069371188	0.0031874036175598757	0.155324485226526	-1.1759580884381884	-0.027331298851467723	0.08155529893113772	-1.0029271272793276	-0.012415334276639566	0.07649913705210923	-1.0360994933709433	0.010869420776585174	0.11025889956290842	-1.1928589546227588	0.002503164659110591	1.4637268255662381	-1.3387379418952192	0.006469813121342566	1.709819415601867	-1.1970188675259998	-0.0007889499867375671	1.557320095164916	-1.1744200983780977	-0.1397726625367215	1.409716049802545	-1.3718200985137479	-0.29307693483603164	1.1605053844593411	-1.4982923531604972	-0.40115079707184254	0.9963131402364767	-1.3622641847017354	0.15863501370614377	1.4066445206694094	-1.421588272516156	0.2794226259655842	1.1487482447154984	-1.4242306088662962	0.36360367133902904	0.9201932857824172	-1.3886310446771093
7	0.1166666666666666	-0.07466183608314303	0.9091965079513558	-1.3629260829486463	-0.04203849394831793	0.4995732788071546	-1.4284536200571756	0.0345955937016217	0.15345245240059502	-1.5921417011448595	-0.019120224004675165	0.06691093561637297	-1.444096988838276	-0.02474630252186307	0.07758698601866472	-1.5017297584660039	0.05526821384038981	0.1252398690259399	-1.6413169481732732	0.08586650764431684	0.9081582905690443	-1.4036356109984638	0.039511317746677196	0.5229925550815857	-1.1937467607973389	0.0009057286458510516	0.1531779036387902	-1.1789235749089728	-0.030991348663776955	0.07599714416135535	-1.006573099457094	-0.015096363821982752	0.07320097740603301	-1.039977914492686	0.00833461709404481	0.11318156352366444	-1.187428341881357	0.011831681996102104	1.464282488365699	-1.3247691571923166	0.021025746322998792	1.7109254752598924	-1.1786962112654669	0.0075378399510509205	1.5584350194251262	-1.1588319792936652	-0.13314086182146576	1.4138114483193283	-1.3602157050777677	-0.2965371876211624	1.168683179474104	-1.4922862177113272	-0.4099377735165402	1.0114132102436584	-1.3516963027877336	0.16106589358310822	1.406060660427397	-1.4221805755859824	0.2832954133163953	1.141670457455142	-1.4178492730034988	0.36509038059900123	0.9120039867246006	-1.3800301974870526
